{
    "asset" : {
        "generator" : "Khronos glTF Blender I/O v1.6.16",
        "version" : "2.0"
    },
    "scene" : 0,
    "scenes" : [
        {
            "name" : "Scene",
            "nodes" : [
                0
            ]
        }
    ],
    "nodes" : [
        {
            "mesh" : 0,
            "name" : "Plane.001",
            "scale" : [
                4,
                1,
                2
            ],
            "translation" : [
                21,
                10,
                9
            ]
        }
    ],
    "materials" : [
        {
            "doubleSided" : true,
            "name" : "Material.002",
            "pbrMetallicRoughness" : {
                "baseColorFactor" : [
                    0.05681866034865379,
                    0.15507735311985016,
                    1,
                    1
                ],
                "metallicFactor" : 0,
                "roughnessFactor" : 0.5
            }
        }
    ],
    "meshes" : [
        {
            "name" : "Plane.002",
            "primitives" : [
                {
                    "attributes" : {
                        "POSITION" : 0,
                        "NORMAL" : 1,
                        "TEXCOORD_0" : 2
                    },
                    "indices" : 3,
                    "material" : 0
                },
                {
                    "attributes" : {
                        "POSITION" : 4
                    },
                    "indices" : 5,
                    "material" : 0,
                    "mode" : 1
                }
            ]
        }
    ],
    "accessors" : [
        {
            "bufferView" : 0,
            "componentType" : 5126,
            "count" : 14084,
            "max" : [
                0.9791666865348816,
                0.9943857789039612,
                1
            ],
            "min" : [
                -0.9791666865348816,
                -0.15556102991104126,
                -0.8333332538604736
            ],
            "type" : "VEC3"
        },
        {
            "bufferView" : 1,
            "componentType" : 5126,
            "count" : 14084,
            "type" : "VEC3"
        },
        {
            "bufferView" : 2,
            "componentType" : 5126,
            "count" : 14084,
            "type" : "VEC2"
        },
        {
            "bufferView" : 3,
            "componentType" : 5123,
            "count" : 21516,
            "type" : "SCALAR"
        },
        {
            "bufferView" : 4,
            "componentType" : 5126,
            "count" : 38,
            "max" : [
                0.270833283662796,
                0.22595292329788208,
                -0.7708332538604736
            ],
            "min" : [
                -0.270833283662796,
                0.014555104076862335,
                -0.8541666269302368
            ],
            "type" : "VEC3"
        },
        {
            "bufferView" : 5,
            "componentType" : 5123,
            "count" : 38,
            "type" : "SCALAR"
        }
    ],
    "bufferViews" : [
        {
            "buffer" : 0,
            "byteLength" : 169008,
            "byteOffset" : 0
        },
        {
            "buffer" : 0,
            "byteLength" : 169008,
            "byteOffset" : 169008
        },
        {
            "buffer" : 0,
            "byteLength" : 112672,
            "byteOffset" : 338016
        },
        {
            "buffer" : 0,
            "byteLength" : 43032,
            "byteOffset" : 450688
        },
        {
            "buffer" : 0,
            "byteLength" : 456,
            "byteOffset" : 493720
        },
        {
            "buffer" : 0,
            "byteLength" : 76,
            "byteOffset" : 494176
        }
    ],
    "buffers" : [
        {
            "byteLength" : 494252,
            "uri" : "data:application/octet-stream;base64,"
        }
    ]
}
