{
    "asset" : {
        "generator" : "Khronos glTF Blender I/O v1.6.16",
        "version" : "2.0"
    },
    "scene" : 0,
    "scenes" : [
        {
            "name" : "Scene",
            "nodes" : [
                0
            ]
        }
    ],
    "nodes" : [
        {
            "mesh" : 0,
            "name" : "Red",
            "scale" : [
                0.5674209594726562,
                0.5674209594726562,
                0.5674209594726562
            ]
        }
    ],
    "materials" : [
        {
            "doubleSided" : true,
            "name" : "Material.007",
            "pbrMetallicRoughness" : {
                "baseColorFactor" : [
                    0.008761302568018436,
                    0.022992368787527084,
                    0.8000000715255737,
                    1
                ],
                "roughnessFactor" : 0.5
            }
        }
    ],
    "meshes" : [
        {
            "name" : "Red",
            "primitives" : [
                {
                    "attributes" : {
                        "POSITION" : 0,
                        "NORMAL" : 1,
                        "TEXCOORD_0" : 2
                    },
                    "indices" : 3,
                    "material" : 0
                }
            ]
        }
    ],
    "accessors" : [
        {
            "bufferView" : 0,
            "componentType" : 5126,
            "count" : 3046,
            "max" : [
                9.959720611572266,
                0,
                2.550788164138794
            ],
            "min" : [
                0.2189141809940338,
                0,
                -2.553415060043335
            ],
            "type" : "VEC3"
        },
        {
            "bufferView" : 1,
            "componentType" : 5126,
            "count" : 3046,
            "type" : "VEC3"
        },
        {
            "bufferView" : 2,
            "componentType" : 5126,
            "count" : 3046,
            "type" : "VEC2"
        },
        {
            "bufferView" : 3,
            "componentType" : 5123,
            "count" : 6684,
            "type" : "SCALAR"
        }
    ],
    "bufferViews" : [
        {
            "buffer" : 0,
            "byteLength" : 36552,
            "byteOffset" : 0
        },
        {
            "buffer" : 0,
            "byteLength" : 36552,
            "byteOffset" : 36552
        },
        {
            "buffer" : 0,
            "byteLength" : 24368,
            "byteOffset" : 73104
        },
        {
            "buffer" : 0,
            "byteLength" : 13368,
            "byteOffset" : 97472
        }
    ],
    "buffers" : [
        {
            "byteLength" : 110840,
            "uri" : "data:application/octet-stream;base64,"
        }
    ]
}
