{
  "asset": {
    "generator": "Khronos glTF Blender I/O v1.6.16",
    "version": "2.0"
  },
  "scene": 0,
  "scenes": [
    {
      "name": "Scene",
      "nodes": [0]
    }
  ],
  "nodes": [
    {
      "mesh": 0,
      "name": "Torus.002",
      "scale": [2.955690860748291, 1.1342817544937134, 1.1342817544937134]
    }
  ],
  "materials": [
    {
      "doubleSided": true,
      "name": "Material.007",
      "pbrMetallicRoughness": {
        "baseColorFactor": [
          0.8000000715255737, 0.005497158505022526, 0.010071370750665665, 1
        ],
        "roughnessFactor": 0.5
      }
    }
  ],
  "meshes": [
    {
      "name": "Torus.002",
      "primitives": [
        {
          "attributes": {
            "POSITION": 0,
            "NORMAL": 1,
            "TEXCOORD_0": 2
          },
          "indices": 3,
          "material": 0
        }
      ]
    }
  ],
  "accessors": [
    {
      "bufferView": 0,
      "componentType": 5126,
      "count": 9600,
      "max": [0.5301473140716553, 0.216552734375, 0.6522574424743652],
      "min": [-0.5301473140716553, -0.05684804916381836, -0.6522574424743652],
      "type": "VEC3"
    },
    {
      "bufferView": 1,
      "componentType": 5126,
      "count": 9600,
      "type": "VEC3"
    },
    {
      "bufferView": 2,
      "componentType": 5126,
      "count": 9600,
      "type": "VEC2"
    },
    {
      "bufferView": 3,
      "componentType": 5123,
      "count": 14400,
      "type": "SCALAR"
    }
  ],
  "bufferViews": [
    {
      "buffer": 0,
      "byteLength": 115200,
      "byteOffset": 0
    },
    {
      "buffer": 0,
      "byteLength": 115200,
      "byteOffset": 115200
    },
    {
      "buffer": 0,
      "byteLength": 76800,
      "byteOffset": 230400
    },
    {
      "buffer": 0,
      "byteLength": 28800,
      "byteOffset": 307200
    }
  ],
  "buffers": [
    {
      "byteLength": 336000,
      "uri": "data:application/octet-stream;base64,"
    }
  ]
}
