{
    "asset" : {
        "generator" : "Khronos glTF Blender I/O v1.6.16",
        "version" : "2.0"
    },
    "scene" : 0,
    "scenes" : [
        {
            "name" : "Scene",
            "nodes" : [
                0
            ]
        }
    ],
    "nodes" : [
        {
            "mesh" : 0,
            "name" : "Red",
            "scale" : [
                0.5674209594726562,
                0.5674209594726562,
                0.5674209594726562
            ]
        }
    ],
    "materials" : [
        {
            "doubleSided" : true,
            "name" : "Material.002",
            "pbrMetallicRoughness" : {
                "baseColorFactor" : [
                    1,
                    0.013283382169902325,
                    0.011072403751313686,
                    1
                ],
                "metallicFactor" : 0,
                "roughnessFactor" : 0.5
            }
        }
    ],
    "meshes" : [
        {
            "name" : "Red",
            "primitives" : [
                {
                    "attributes" : {
                        "POSITION" : 0,
                        "NORMAL" : 1,
                        "TEXCOORD_0" : 2
                    },
                    "indices" : 3,
                    "material" : 0
                }
            ]
        }
    ],
    "accessors" : [
        {
            "bufferView" : 0,
            "componentType" : 5126,
            "count" : 3790,
            "max" : [
                9.07530689239502,
                0,
                2.300787925720215
            ],
            "min" : [
                0.05954466015100479,
                0,
                -1.7810858488082886
            ],
            "type" : "VEC3"
        },
        {
            "bufferView" : 1,
            "componentType" : 5126,
            "count" : 3790,
            "type" : "VEC3"
        },
        {
            "bufferView" : 2,
            "componentType" : 5126,
            "count" : 3790,
            "type" : "VEC2"
        },
        {
            "bufferView" : 3,
            "componentType" : 5123,
            "count" : 8406,
            "type" : "SCALAR"
        }
    ],
    "bufferViews" : [
        {
            "buffer" : 0,
            "byteLength" : 45480,
            "byteOffset" : 0
        },
        {
            "buffer" : 0,
            "byteLength" : 45480,
            "byteOffset" : 45480
        },
        {
            "buffer" : 0,
            "byteLength" : 30320,
            "byteOffset" : 90960
        },
        {
            "buffer" : 0,
            "byteLength" : 16812,
            "byteOffset" : 121280
        }
    ],
    "buffers" : [
        {
            "byteLength" : 138092,
            "uri" : "data:application/octet-stream;base64,"
        }
    ]
}
